<svg width="578" height="600" viewBox="0 0 578 600" fill="none" xmlns="http://www.w3.org/2000/svg">
<g clip-path="url(#clip0_2_680)">
<rect width="578" height="600" rx="10" fill="white"/>
<g clip-path="url(#clip1_2_680)">
<path opacity="0.4" d="M-77.323 254.722C-88.2457 280.615 -90.0136 309.603 -91.7183 337.96C-92.3496 349.327 -92.7285 361.895 -85.9728 370.8C-72.7772 388.231 -38.557 383.999 -35.4633 406.103C-33.8217 418.103 -44.2393 429.092 -42.7871 441.028C-41.3981 451.954 -30.9805 458.648 -21.3837 462.942C-0.546272 472.285 21.7159 478.05 44.4681 479.994C51.9993 479.76 59.4226 481.831 65.7452 485.931C69.9652 490.209 73.4432 495.161 76.0365 500.583C89.2322 521.992 113.919 531.718 137.848 536.265C174.459 543.092 212.18 540.925 247.769 529.949C263.99 524.01 280.513 518.929 297.268 514.729C365.519 501.467 435.664 548.896 503.032 531.402C518.942 527.297 534.032 519.655 550.321 518.14C563.179 517.607 576.049 518.818 588.582 521.739C622.586 527.751 657.029 530.94 691.558 531.276C694.945 531.672 698.371 530.987 701.345 529.318C704.758 526.126 706.872 521.785 707.28 517.129C712.583 492.373 717.129 463.763 702.418 443.807C690.864 428.523 670.218 422.208 661.947 404.588C644.585 367.579 697.746 325.644 683.288 287.246C675.585 266.784 652.287 259.016 631.705 256.806C611.122 254.596 588.708 254.848 572.04 241.712C549.311 223.776 545.523 186.894 522.478 169.337C500.695 152.79 470.579 159.674 445.577 169.905C420.575 180.136 394.12 193.083 368.234 186.641C354.916 182.606 342.65 175.684 332.309 166.369C326.252 162.078 321.438 156.26 318.356 149.506C315.136 140.854 317.093 130.56 314.126 122.034C309.517 108.14 294.68 101.888 281.484 97.2775C237.478 81.9941 192.082 66.5844 146.055 73.0262C97.1243 80.0363 54.6963 110.919 14.3518 141.423C9.70476 144.384 5.83051 148.411 3.05026 153.169C1.18305 158.185 0.0145874 163.434 -0.422272 168.768C-4.27362 191.125 -16.4591 200.346 -33.8848 208.24C-53.6919 217.72 -69.2013 234.316 -77.323 254.722Z" fill="#B5D2E2"/>
<path opacity="0.26" d="M292.489 87.5734C293.336 77.1636 297.179 67.2221 303.555 58.9508C309.93 50.6796 318.564 44.4326 328.414 40.9653C357.204 31.6185 388.583 46.9019 413.964 60.9853C439.345 75.0688 472.618 88.9628 499.957 77.2792C534.429 62.501 535.376 15.7035 574.142 9.89328C583.079 9.0988 592.081 10.2638 600.521 13.307C608.961 16.3502 616.636 21.1984 623.01 27.5134C630.614 34.1038 636.79 42.1795 641.159 51.2444C645.528 60.3094 647.999 70.1722 648.419 80.227C648.839 90.2818 647.199 100.316 643.6 109.714C640.002 119.112 634.521 127.675 627.493 134.876C644.035 139.423 662.218 135.571 679.834 134.876C697.449 134.181 718.537 139.234 722.83 152.307C725.608 160.706 722.83 172.706 733.184 175.548C735.742 176.036 738.351 176.206 740.95 176.053C785.146 175.548 824.607 205.041 830.1 238.702C835.592 272.364 809.896 306.593 771.761 323.519C784.388 341.013 809.959 349.665 829.721 362.548C863.688 384.716 879.346 423.051 864.762 455.386C850.177 487.721 804.529 510.772 760.46 505.909C764.121 516.898 754.146 528.392 741.518 533.887C727.786 538.718 713.332 541.174 698.775 541.15L553.56 549.233C544.285 550.438 534.858 549.553 525.969 546.644C520.476 544.244 516.372 540.328 510.753 538.055C495.221 531.74 477.417 540.96 461.822 547.023C423.245 561.991 373.43 557.696 340.094 536.476C333.557 532.712 328.066 527.371 324.12 520.94C321.364 514.668 320.193 507.815 320.711 500.983C320.711 469.406 320.711 437.829 334.412 408.146C339.336 397.662 346.092 386.926 343.882 375.874C342.051 366.59 334.159 358.822 326.835 351.244C301.442 325.273 279.423 296.203 261.299 264.722C250.25 245.334 240.843 224.556 242.358 203.336C244.189 177.695 265.213 166.896 281.187 147.191C296.151 128.624 289.837 108.541 292.489 87.5734Z" fill="#FDB515"/>
<path d="M310.609 356.296L311.745 359.264L314.523 361.033L318.185 361.727L386.184 364.127L408.345 233.271L409.86 222.345L409.229 218.682L406.766 215.777L404.872 215.398L401.526 213.819L398.117 213.125L337.568 215.84L334.096 218.24L310.609 356.296Z" fill="#563D26"/>
<path d="M304.358 354.022L305.495 356.991L308.273 358.696L311.872 359.391L379.933 361.854L402.031 230.997L403.546 220.008L402.915 216.346L400.453 213.504L398.559 213.125L395.212 211.483L391.803 210.851L331.318 213.567L327.782 215.903L304.358 354.022Z" fill="#9D8974"/>
<path d="M167.351 122.308H52.3789V336.213H167.351V122.308Z" fill="#9FA0A0"/>
<path d="M177.074 122.308H62.102V336.213H177.074V122.308Z" fill="#D7DBDD"/>
<path d="M315.155 234.85L303.601 243.628L291.605 253.102L274.873 265.164L254.038 277.479L247.409 282.847L251.513 299.899L272.348 292.321L292.994 286.637L298.865 282.847L309.914 262.006L318.943 232.197L318.627 237.376L315.155 246.028" fill="white"/>
<path d="M103.015 236.113L100.3 237.755L99.1002 240.85V244.513L109.518 311.772L242.232 308.867L253.281 308.299L256.753 307.036L259.089 304.004V302.109L260.036 298.447V295.036L245.957 236.113L242.989 233.082L103.015 236.113Z" fill="#09293D"/>
<path d="M469.272 346.697H52.3789V487.152H469.272V346.697Z" fill="white"/>
<path d="M556.653 348.528H470.977V487.784H556.653V348.528Z" fill="#E8EDEC"/>
<path d="M472.871 340.065H50.7372V349.412H472.871V340.065Z" fill="#B4AEA3"/>
<path d="M557.537 340.002H472.555V349.475H557.537V340.002Z" fill="#A69DA7"/>
<path d="M472.871 331.476H50.7372V340.823H472.871V331.476Z" fill="#DDAD31"/>
<path d="M557.853 331.476H472.871V340.95H557.853V331.476Z" fill="#DDAD31"/>
<path d="M95.6908 238.955L92.9128 240.66L91.7763 243.691V247.354L102.194 314.677L234.845 311.709L245.894 311.14L249.366 309.877L251.765 306.846V304.951L252.712 301.351V297.878L238.633 238.955L235.665 235.923L95.6908 238.955Z" fill="#245679"/>
<path d="M176.443 238.639H163.626V251.46H176.443V238.639Z" fill="#B75C29"/>
<path d="M342.619 255.817L316.986 260.87L323.173 225.692H342.619V255.817Z" fill="#B85A1E"/>
<path d="M174.296 243.376C181.828 243.376 187.934 234.723 187.934 224.05C187.934 213.377 181.828 204.725 174.296 204.725C166.764 204.725 160.659 213.377 160.659 224.05C160.659 234.723 166.764 243.376 174.296 243.376Z" fill="#D4895A"/>
<path d="M183.072 222.914C183.944 222.914 184.651 221.952 184.651 220.766C184.651 219.58 183.944 218.619 183.072 218.619C182.201 218.619 181.494 219.58 181.494 220.766C181.494 221.952 182.201 222.914 183.072 222.914Z" fill="#0D2F4F"/>
<path d="M348.239 215.588C348.239 219.314 346.092 222.408 343.44 222.408C342.913 225.215 341.601 227.814 339.657 229.905C337.712 231.995 335.215 233.491 332.454 234.218C330.679 234.389 328.888 234.134 327.23 233.475C325.572 232.816 324.095 231.772 322.921 230.429C321.381 228.869 320.158 227.024 319.322 224.998C318.372 222.697 317.756 220.273 317.491 217.798C316.923 210.346 321.153 198.41 329.234 197.02C335.548 196.01 341.167 201.125 343.251 208.957C346.092 208.83 348.239 211.798 348.239 215.588Z" fill="#D4895A"/>
<path d="M321.532 205.925L319.006 209.083L321.532 205.925Z" fill="#D4895A"/>
<path d="M324.373 231.882C324.373 232.576 325.509 237.186 322.416 234.218C321.847 233.65 321.279 234.218 319.259 234.218C317.238 234.218 316.354 234.913 315.281 234.66C314.208 234.408 313.703 234.092 310.672 227.903C309.684 226.28 308.96 224.511 308.525 222.661C308.632 220.819 308.843 218.985 309.157 217.167C309.157 214.325 308.652 214.388 308.778 211.483C309.079 209.355 309.501 207.247 310.041 205.167C310.041 203.525 310.609 202.515 311.493 202.009C312.377 201.504 313.766 202.009 313.829 202.009C313.892 202.009 309.283 200.999 308.778 198.852C308.682 198.424 308.708 197.979 308.853 197.566C308.998 197.152 309.257 196.788 309.599 196.515C310.546 195.694 311.556 196.515 314.65 196.073C315.786 195.992 316.908 195.78 317.996 195.441C318.956 195.207 319.888 194.868 320.774 194.431C322.289 193.547 322.415 192.852 323.678 192.094C324.808 191.535 326.025 191.172 327.277 191.021C330.055 190.515 332.328 190.326 333.591 190.199C335.419 190.064 337.255 190.064 339.084 190.199C341.261 190.415 343.391 190.969 345.397 191.842C347.023 192.551 348.586 193.396 350.069 194.368C353.631 196.744 356.402 200.131 358.025 204.094C358.764 205.735 359.397 207.423 359.919 209.146C362.129 214.451 363.265 214.893 364.78 219.061C365.821 221.687 366.459 224.455 366.675 227.271C366.675 231.882 365.727 232.639 366.675 236.492C367.622 240.344 368.632 241.355 367.685 242.807C366.738 244.26 365.538 243.881 363.518 243.881C357.714 243.804 351.959 242.802 346.471 240.913C342.998 239.776 341.672 239.144 340.978 237.755C340.283 236.365 340.978 235.481 340.978 231.439C340.597 227.807 340.597 224.146 340.978 220.514C340.978 219.503 341.672 218.493 341.672 218.493C342.2 217.125 342.9 215.831 343.756 214.64C345.65 211.546 342.177 211.798 342.114 209.904C342.051 208.009 338.831 208.514 338.642 208.388C337.063 206.746 338.642 203.02 335.485 202.578C332.328 202.136 332.012 200.873 328.35 201.567C326.962 201.621 325.631 202.132 324.562 203.02C323.543 204.149 322.883 205.556 322.668 207.062L323.11 205.546C323.11 205.546 319.701 207.567 319.385 210.219C318.758 211.982 318.458 213.844 318.501 215.714C318.501 216.724 318.88 218.24 318.817 219.756C318.817 223.419 319.259 222.787 319.448 224.492C319.637 226.198 324.057 229.04 324.373 231.882Z" fill="#742725"/>
<path d="M415.858 294.278C415.893 294.402 415.893 294.533 415.858 294.657L414.595 300.341C414.55 300.548 414.426 300.73 414.249 300.848C414.073 300.965 413.857 301.01 413.648 300.973H410.744L387.952 299.899C387.737 299.901 387.53 299.826 387.367 299.686C387.205 299.547 387.098 299.353 387.068 299.141L385.742 290.552L384.795 285.184V284.742L378.481 278.426L371.852 274.637L359.666 269.901L353.353 268.069C353.293 268.097 353.229 268.112 353.163 268.112C353.098 268.112 353.033 268.097 352.974 268.069L346.66 260.869C346.606 260.684 346.606 260.487 346.66 260.301C346.66 258.533 346.66 249.438 348.491 248.617C351 245.818 353.123 242.696 354.805 239.334C354.805 239.334 354.805 239.334 355.184 239.018L357.646 237.944L361.182 236.492C361.287 236.431 361.407 236.399 361.529 236.399C361.651 236.399 361.77 236.431 361.876 236.492L377.787 243.06L394.518 255.691L403.736 267.627L410.05 279.626L413.585 285.942C413.624 286.043 413.624 286.156 413.585 286.258L415.858 294.278Z" fill="white"/>
<path d="M249.366 393.115C249.366 393.115 211.863 393.873 198.857 393.115C184.966 392.294 163.5 393.431 163.5 393.431C163.5 393.431 131.931 393.431 129.343 374.863C128.812 368.769 129.738 362.636 132.043 356.97C134.348 351.304 137.967 346.267 142.602 342.276C142.602 342.276 196.899 344.802 214.641 347.517C228.026 349.538 268.181 359.391 268.181 359.391L249.366 393.115Z" fill="#03101C"/>
<path d="M308.462 325.413H222.533V329.897H308.462V325.413Z" fill="#245679"/>
<path d="M252.27 345.813L249.745 349.223L247.219 352.128H239.264L218.618 344.549L201.256 332.992L192.48 318.846L190.017 309.12L123.66 305.394V255.691L125.618 250.828C127.092 249.666 128.73 248.729 130.479 248.049H184.651C187.602 247.425 190.672 247.691 193.471 248.816C196.27 249.94 198.672 251.872 200.372 254.365C203.223 259.036 204.811 264.368 204.981 269.838L205.486 289.605H206.307V314.298L223.227 325.161L249.745 346.128L252.27 345.813Z" fill="#FA463F"/>
<path d="M142.538 204.409C138.435 207.693 137.93 209.272 137.866 210.346C137.803 211.42 138.561 212.43 137.866 213.693C137.172 214.956 135.467 215.461 133.194 217.293C131.608 218.781 130.322 220.561 129.406 222.535C128.306 224.682 127.458 226.95 126.881 229.292C126.191 231.616 125.767 234.01 125.618 236.429C125.618 239.65 125.997 240.029 126.249 245.712C126.502 251.396 126.249 252.028 125.428 253.102C124.608 254.175 122.903 254.301 121.64 256.259C121.204 256.779 120.882 257.386 120.697 258.039C120.512 258.692 120.468 259.377 120.567 260.049C121.135 261.943 123.408 261.943 123.534 263.396C123.661 264.848 122.524 264.533 121.198 266.743C120.452 267.731 120.013 268.917 119.935 270.153C119.935 270.974 120.377 271.922 122.019 273.5C125.807 277.037 129.027 276.974 129.217 278.553C129.406 280.132 126.565 280.511 126.06 282.974C125.983 283.903 126.113 284.839 126.44 285.712C126.768 286.586 127.285 287.376 127.954 288.026C129.468 289.181 131.274 289.893 133.169 290.082C135.064 290.272 136.974 289.932 138.687 289.1C140.522 288.566 142.095 287.374 143.107 285.752C144.306 283.226 142.223 281.711 143.107 277.921C143.304 276.645 143.766 275.425 144.461 274.337C145.157 273.25 146.072 272.32 147.147 271.606C148.915 270.722 149.673 271.606 151.567 270.785C153.468 269.573 154.826 267.672 155.355 265.48C155.987 263.333 155.355 263.08 155.797 260.238C156.019 258.228 156.807 256.323 158.07 254.744C159.413 253.512 161.007 252.585 162.742 252.028C165.331 250.891 165.836 251.207 166.72 250.323C167.604 249.439 168.046 247.544 168.172 244.639C168.442 242.179 168.227 239.69 167.541 237.313C166.531 233.903 165.268 233.903 164.636 230.555C164.255 228.957 164.255 227.291 164.636 225.692C164.82 224.358 165.39 223.106 166.278 222.093C168.109 220.324 169.877 221.461 172.592 219.566C173.899 218.885 174.926 217.768 175.496 216.409C175.816 215.107 175.965 213.77 175.938 212.43C175.938 210.156 175.938 209.967 176.38 209.714C176.822 209.462 177.074 208.956 180.799 208.451C182.757 208.135 183.072 208.451 183.514 207.82C183.988 207.273 184.299 206.604 184.411 205.89C184.522 205.175 184.431 204.443 184.146 203.778C183.704 202.704 182.883 202.073 179.726 200.431C177.963 199.394 176.127 198.486 174.233 197.715C170.145 196.468 165.828 196.165 161.606 196.831C159.331 196.907 157.068 197.203 154.85 197.715C150.28 198.954 146.063 201.246 142.538 204.409Z" fill="#231414"/>
<path d="M122.335 373.032L127.764 394.378H136.098L130.606 371.264L122.335 373.032Z" fill="#4C3535"/>
<path d="M184.777 373.032L190.207 394.378H198.541L193.048 371.264L184.777 373.032Z" fill="#4C3535"/>
<path opacity="0.8" d="M67.9106 497.383C57.8718 497.383 47.7068 497.825 38.9307 498.646C30.1547 499.467 22.8308 501.046 21.8206 502.878C21.8206 503.509 21.8206 504.267 24.7881 504.709C26.7533 505.017 28.7351 505.206 30.7229 505.278C50.8636 506.667 35.3951 512.288 56.7985 512.098C49.0958 514.119 81.2956 512.098 91.8395 513.677C95.2489 514.182 99.7316 514.372 104.088 514.561C139.59 515.953 175.147 514.475 210.411 510.14C218.303 509.067 225.753 507.741 235.223 507.235C241.095 506.856 247.409 506.856 253.028 506.351C258.263 505.948 263.457 505.124 268.56 503.888C272.386 503.266 276.093 502.052 279.546 500.288C281.25 498.962 279.546 497.383 273.674 496.499C267.721 495.839 261.731 495.565 255.743 495.678C219.692 495.678 187.492 497.446 152.388 498.141C124.544 498.583 96.5116 496.941 67.9106 497.383Z" fill="#7797A5"/>
<path d="M203.907 388.884H119.935C116.867 388.884 114.379 391.358 114.379 394.41C114.379 397.462 116.867 399.936 119.935 399.936H203.907C206.976 399.936 209.463 397.462 209.463 394.41C209.463 391.358 206.976 388.884 203.907 388.884Z" fill="#231414"/>
<path d="M186.545 396.02L166.341 499.91H173.286L193.49 396.02H186.545Z" fill="#4C3535"/>
<path d="M204.602 398.357L222.343 499.909H216.219L198.478 398.357H204.602Z" fill="#231414"/>
<path d="M123.976 396.02L103.772 499.91H110.717L130.921 396.02H123.976Z" fill="#4C3535"/>
<path d="M219.313 398.231L250.061 399.809L223.669 477.932L213.378 477.363C213.378 477.363 212.999 443.449 213.378 430.313C214.036 419.416 216.029 408.641 219.313 398.231Z" fill="#AA653F"/>
<path d="M266.666 359.707L283.207 366.022C284.649 366.648 285.925 367.602 286.933 368.808C287.942 370.014 288.655 371.439 289.016 372.969C289.337 376.551 288.751 380.157 287.311 383.453L268.37 437.071L242.105 487.973H232.635L251.008 405.873L259.468 390.337L252.46 388.316L266.666 359.707Z" fill="#D4895A"/>
<path d="M271.022 388.884H204.097C201.028 388.884 198.541 391.358 198.541 394.41C198.541 397.462 201.028 399.936 204.097 399.936H271.022C274.091 399.936 276.578 397.462 276.578 394.41C276.578 391.358 274.091 388.884 271.022 388.884Z" fill="#4C3535"/>
<path d="M269.002 399.936L286.806 501.488H280.682L262.877 399.936H269.002Z" fill="#231414"/>
<path d="M233.645 484.374H243.873L247.346 488.794C248.028 489.544 248.767 490.241 249.555 490.878C250.57 491.451 251.523 492.129 252.397 492.899C253.344 493.847 255.238 494.036 255.869 494.478C257.933 495.158 260.043 495.685 262.183 496.057H266.602L268.497 497.825V500.478L267.423 501.299H260.478L248.672 500.667L245.452 501.299L242.168 500.352L237.749 497.952L232.824 495.678L231.877 492.205L233.645 484.374Z" fill="#191F36"/>
<path d="M222.722 477.869L226.511 484.184L222.722 477.869Z" fill="#F66F6A"/>
<path d="M223.543 476.732C224.174 477.995 224.238 480.521 224.932 481.784C225.627 483.047 228.405 484.058 229.352 484.942C230.299 485.826 232.509 486.584 233.898 487.72C235.287 488.857 235.476 489.236 234.34 490.752C233.966 491.164 233.475 491.452 232.933 491.576C232.391 491.7 231.824 491.655 231.309 491.447C230.236 491.447 229.225 491.447 228.152 491.447C226.59 491.15 225.006 490.981 223.417 490.941C221.081 490.941 218.934 491.699 216.598 491.636C215.641 491.796 214.659 491.617 213.82 491.131C212.431 489.931 212.999 487.468 212.936 485.447C212.599 482.753 212.705 480.022 213.252 477.363C213.621 476.369 214.309 475.525 215.209 474.963C216.535 474.142 218.113 474.963 219.439 475.469C220.765 475.974 222.722 475.026 223.543 476.732Z" fill="#0D2F4F"/>
<path d="M494.59 297.499H422.803L430.759 261.627H502.861L494.59 297.499Z" fill="#1C4773"/>
<path d="M489.35 297.499H417.626L425.518 261.627H497.621L489.35 297.499Z" fill="#25528A"/>
<path d="M488.592 297.31H516.562C523.26 297.31 529.683 299.971 534.419 304.709C539.156 309.446 541.816 315.872 541.816 322.571V332.045H488.781V297.31H488.592Z" fill="#163D7F"/>
<path d="M401.21 297.31H494.969C498.184 297.31 501.267 298.587 503.54 300.861C505.814 303.135 507.091 306.219 507.091 309.435V331.918H380.817V317.772C380.817 312.356 382.964 307.161 386.786 303.325C390.609 299.489 395.796 297.326 401.21 297.31Z" fill="#355D98"/>
<path d="M473.755 318.34H409.292V322.761H473.755V318.34Z" fill="#0B303E"/>
<path d="M451.404 303.688H436.251V308.109H451.404V303.688Z" fill="#F7FAFC"/>
<path d="M478.49 297.31H432.021L441.492 255.88L488.339 255.754L478.49 297.31Z" fill="#F7FAFC"/>
<path d="M297.35 330.908H333.78L330.813 322.887L321.532 321.498L314.587 320.361C314.587 320.361 312.314 319.288 311.682 320.361C311.051 321.435 304.927 322.445 304.927 322.445L298.992 327.182L297.35 330.908Z" fill="#FF8680"/>
<path d="M324.373 216.724C325 216.724 325.509 215.82 325.509 214.703C325.509 213.587 325 212.682 324.373 212.682C323.745 212.682 323.236 213.587 323.236 214.703C323.236 215.82 323.745 216.724 324.373 216.724Z" fill="#02070A"/>
<path d="M334.033 216.724C334.66 216.724 335.169 215.82 335.169 214.703C335.169 213.587 334.66 212.682 334.033 212.682C333.405 212.682 332.896 213.587 332.896 214.703C332.896 215.82 333.405 216.724 334.033 216.724Z" fill="#02070A"/>
<path d="M178.905 231.376C179.678 232.53 180.845 233.361 182.188 233.713C183.408 233.791 184.631 233.791 185.85 233.713" stroke="#231F20" stroke-width="1.03452" stroke-miterlimit="10"/>
<path d="M319.006 239.081C321.906 241.332 325.307 242.848 328.919 243.502C333.502 243.785 338.099 243.785 342.682 243.502L325.509 263.901H315.534L314.397 243.06L319.006 239.081Z" fill="white"/>
<path d="M322.605 241.481C324.55 242.692 326.684 243.567 328.919 244.07C332.127 244.132 335.336 243.942 338.515 243.502L337.568 246.723C334.585 246.974 331.586 246.974 328.603 246.723C326.104 246.482 323.656 245.865 321.342 244.891L322.605 241.481Z" fill="#EDEDED"/>
<path d="M416.49 299.899L415.732 303.309C415.686 303.521 415.565 303.709 415.39 303.837C415.216 303.965 415 304.024 414.785 304.004L388.394 302.804C388.176 302.804 387.967 302.718 387.813 302.564C387.659 302.41 387.573 302.201 387.573 301.983L386.121 293.584L385.11 287.963C385.145 287.796 385.145 287.624 385.11 287.458L378.355 281.142L372.041 276.784L359.414 271.795L353.1 269.901C352.921 269.848 352.765 269.737 352.658 269.585L346.344 261.943C346.305 261.865 346.285 261.778 346.285 261.69C346.285 261.603 346.305 261.516 346.344 261.438C346.344 259.543 346.344 250.007 348.238 249.123C350.921 246.193 353.174 242.897 354.931 239.334C354.958 239.244 355.007 239.163 355.073 239.097C355.139 239.031 355.22 238.982 355.31 238.955L361.624 236.302C361.868 236.21 362.137 236.21 362.381 236.302L364.717 237.755L362.697 238.639C362.697 238.639 362.381 238.639 362.318 238.955C361.497 240.407 359.098 248.049 357.52 248.87C355.417 251.266 354.077 254.234 353.668 257.396C353.574 258.889 353.574 260.387 353.668 261.88C355.12 263.206 359.982 267.564 359.982 267.564C360.041 267.592 360.106 267.606 360.171 267.606C360.237 267.606 360.302 267.592 360.361 267.564L366.296 269.395L378.229 274.069L384.1 278.174L390.414 284.489C390.454 284.634 390.454 284.787 390.414 284.931L391.424 290.299L392.75 298.762C392.781 298.974 392.887 299.168 393.05 299.307C393.212 299.447 393.42 299.522 393.634 299.52L416.49 299.899Z" fill="#D9EAF9"/>
<path d="M352.09 234.345C354.834 233.777 357.673 233.858 360.381 234.581C363.088 235.305 365.589 236.651 367.685 238.513C367.685 239.586 362.949 236.618 359.982 240.471C358.118 242.925 356.45 245.522 354.994 248.239C353.538 250.116 352.466 252.262 351.837 254.554C351.62 256.295 351.62 258.055 351.837 259.796C351.69 261.672 351.993 263.555 352.721 265.29C353.479 266.553 354.805 267.122 357.33 268.195C360.195 269.364 363.152 270.293 366.169 270.974C369.326 271.732 369.453 271.669 369.768 271.985C371.726 274.321 366.927 279.121 364.275 289.289C363.455 292.768 362.823 296.289 362.381 299.836C362.002 303.057 361.371 306.151 360.929 309.499C360.487 312.846 360.487 313.035 359.856 313.73C357.899 316.003 354.552 314.109 348.933 314.74C344.703 315.246 345.461 316.446 336.685 319.224C333.317 320.72 329.611 321.287 325.951 320.866C323.236 320.235 322.858 319.035 319.638 318.34C317.542 318.064 315.419 318.064 313.324 318.34H312.314L309.157 318.782C307.098 319.148 305.114 319.852 303.285 320.866L301.391 322.193C297.666 324.719 297.035 325.098 296.088 325.287C295.14 325.477 293.436 325.919 292.741 325.287C292.047 324.656 296.214 321.308 297.855 314.993C299.055 310.32 300.949 306.657 301.517 304.636C302.906 299.331 304.8 297.247 303.096 291.31C302.149 288.152 297.287 286.763 293.878 279.942C292.512 276.224 292.228 272.195 293.057 268.322C293.057 266.49 310.546 235.797 315.155 234.724C315.66 234.724 322.921 233.208 323.931 234.218C324.941 235.229 324.436 237.06 323.931 239.46C323.031 242.748 322.711 246.167 322.984 249.565C323.678 254.744 320.711 257.207 322.352 257.775C323.994 258.343 326.646 255.628 328.666 253.165C339.778 241.418 345.524 236.745 352.09 234.345Z" fill="#0093C9"/>
<path d="M372.862 297.247H353.921V326.361H372.862V297.247Z" fill="#DDAD31"/>
<path d="M202.14 366.148C198.73 375.621 181.746 377.453 181.746 377.453H140.96C133.696 377.56 126.451 376.668 119.43 374.8C111.096 370.822 106.803 354.717 106.803 354.717L99.5421 323.708C99.5421 323.708 94.9962 304.762 101.373 294.784C107.75 284.805 123.66 286.637 123.66 286.637H161.543C165.376 286.327 169.229 286.919 172.792 288.367C176.355 289.815 179.53 292.077 182.062 294.973C187.292 300.564 191.33 307.161 193.932 314.362L202.645 348.781C204.332 354.476 204.155 360.561 202.14 366.148Z" fill="#09344C"/>
<path d="M195.195 366.338C191.911 375.432 175.306 377.2 175.306 377.2H135.53C128.441 377.298 121.37 376.449 114.506 374.674C106.424 370.822 102.383 355.412 102.383 355.412L95.312 325.666C95.312 325.666 90.8924 307.351 97.0798 297.941C103.267 288.531 118.862 290.11 118.862 290.11H155.671C159.386 289.79 163.125 290.342 166.589 291.724C170.053 293.105 173.147 295.278 175.622 298.068C180.726 303.394 184.681 309.715 187.239 316.635L195.889 349.854C197.508 355.272 197.264 361.076 195.195 366.338Z" fill="#24587B"/>
</g>
</g>
<defs>
<clipPath id="clip0_2_680">
<rect width="578" height="600" rx="10" fill="white"/>
</clipPath>
<clipPath id="clip1_2_680">
<rect width="1109" height="546.224" fill="white" transform="translate(-233 9.38806)"/>
</clipPath>
</defs>
</svg>
