<svg width="175" height="47" viewBox="0 0 175 47" fill="none" xmlns="http://www.w3.org/2000/svg">
<path d="M170.309 24.2391C169.779 24.2391 169.229 24.2391 168.831 24.1823L173.929 0H139.911L138.85 5.00323C137.637 4.81371 136.784 5.30645 136.538 6.10242C136.291 6.89839 135.382 10.3097 135.382 12.546C135.382 16.071 136.253 17.3597 136.253 17.3597L130.018 47H164.036L168.149 27.4988C172.811 27.3282 174.119 25.869 174.119 25.0161C174.119 23.8222 171.788 24.2012 170.328 24.2012L170.309 24.2391Z" fill="#DDAD31"/>
<path fill-rule="evenodd" clip-rule="evenodd" d="M141.923 38.2001L141.904 33.4622L146.964 37.0441L145.486 44.3404L146.168 45.7618H140.047L139.346 44.3594L141.885 38.2001H141.923ZM161.121 38.9203C161.784 38.9203 162.22 38.5223 162.22 38.5223C162.296 37.5368 162.069 37.0251 162.069 37.0251C161.292 37.2336 160.647 36.9493 160.553 36.1533C160.439 35.0731 162.884 30.3162 163.49 28.7433C163.736 28.1179 163.755 27.2461 163.755 27.2461C161.159 26.886 158.923 25.4836 158.923 25.4836L159.169 27.1513C159.264 28.1747 157.956 33.5759 158.222 36.2291C158.222 36.2291 158.449 38.9582 161.102 38.9392L161.121 38.9203ZM162.808 17.9598C163.376 19.0211 163.585 20.4993 163.755 22.7546C161.766 21.8449 158.43 19.1348 158.43 19.1348C154.64 18.3767 153.332 21.4279 153.332 21.4279L154.185 22.186C153.863 23.6832 152.801 24.4412 152.801 24.4412C135.878 24.4412 136.238 13.7904 136.238 12.5775C136.238 10.3412 137.109 7.06262 137.394 6.34245C137.678 5.62229 138.948 5.86866 138.948 5.86866L147.23 7.08157L148.973 6.11503C148.973 6.11503 151.532 5.92552 154.299 6.72149C154.299 6.72149 158.563 10.3223 160.23 12.9566L160.098 14.3211C160.098 14.3211 162.277 16.9743 162.789 17.9598H162.808ZM154.564 14.1316L152.65 12.2933L149.807 14.7949L154.564 14.1316ZM135.366 34.6372L142.037 32.3062L151.285 38.9013L147.703 41.1566L152.991 45.5912L153.067 44.0183L154.659 40.0574L154.526 36.6461L151.172 31.1501L151.816 28.7622L151.588 26.09C142.909 26.109 139.175 22.2808 137.128 19.1348L133.945 34.4287L135.366 34.6372ZM155.057 21.5796C155.057 21.5796 161.121 27.7009 169.593 26.6586C172.663 26.2796 173.345 25.4646 173.25 25.0856C173.155 24.7255 172.113 24.8771 171.09 24.915C170.502 24.9529 165.385 25.6162 158.601 20.4046C155.947 19.7033 155.057 21.5606 155.057 21.5606V21.5796Z" fill="#022E64"/>
<path d="M77.3275 36.2644C77.3085 36.3023 77.2706 36.3402 77.1948 36.3213C77.138 36.3213 77.0811 36.3023 77.0243 36.2834C76.9674 36.2644 76.8727 36.2455 76.721 36.2076C76.5884 36.1886 76.4557 36.1507 76.2852 36.1318C76.1146 36.1128 75.963 36.0749 75.7735 36.056C75.6029 36.037 75.4323 36.0181 75.2807 36.0181C74.9775 36.0181 74.7311 36.056 74.5227 36.1318C74.3142 36.2076 74.1436 36.3023 74.011 36.416C73.8783 36.5298 73.7646 36.6435 73.7077 36.7951C73.6319 36.9277 73.594 37.0604 73.5751 37.1741C73.5182 37.3826 73.5561 37.5531 73.6509 37.7237C73.7456 37.8943 73.9731 38.0648 74.3142 38.2164L75.3186 38.6334C75.6219 38.7471 75.8682 38.8987 76.0767 39.0693C76.2852 39.2398 76.4368 39.4293 76.5694 39.6568C76.6831 39.8652 76.7589 40.0927 76.7779 40.339C76.8158 40.5854 76.8158 40.8128 76.7589 41.0781C76.7021 41.4193 76.5694 41.7225 76.361 41.9878C76.1525 42.2531 75.9061 42.4995 75.6219 42.689C75.3186 42.8785 74.9965 43.0302 74.5985 43.1249C74.2194 43.2386 73.8214 43.2955 73.3856 43.2955C73.1392 43.2955 72.9118 43.2765 72.6654 43.2386C72.419 43.2007 72.2106 43.1628 72.0021 43.106C71.7936 43.0491 71.6041 42.9733 71.4525 42.9164C71.3009 42.8596 71.1872 42.7838 71.1303 42.7459C71.0924 42.708 71.0735 42.6701 71.0924 42.6322C71.1114 42.5943 71.1303 42.5374 71.1872 42.4616L71.4715 41.9878C71.4904 41.9499 71.5473 41.931 71.6041 41.931C71.661 41.931 71.7178 41.931 71.7747 41.9689C71.8505 41.9878 71.9452 42.0257 72.0969 42.0447C72.2295 42.0826 72.4001 42.1015 72.5706 42.1205C72.7412 42.1584 72.9118 42.1773 73.1013 42.1963C73.2908 42.2152 73.4614 42.2342 73.6319 42.2342C74.1247 42.2342 74.5416 42.1394 74.8638 41.9689C75.2049 41.7794 75.3944 41.514 75.4513 41.2108C75.5081 40.9455 75.4513 40.6991 75.2807 40.5096C75.1102 40.3011 74.9017 40.1495 74.6364 40.0358L73.6319 39.5999C73.3856 39.5052 73.1581 39.3725 72.9686 39.2209C72.7791 39.0882 72.6086 38.9177 72.4948 38.7281C72.3622 38.5386 72.2864 38.3302 72.2485 38.1027C72.1916 37.8753 72.2106 37.61 72.2674 37.3257C72.3432 36.9656 72.4759 36.6435 72.6844 36.3402C72.8928 36.037 73.1392 35.7906 73.4235 35.6011C73.7267 35.3927 74.0299 35.241 74.39 35.1463C74.7501 35.0326 75.1102 34.9757 75.4892 34.9757C75.7356 34.9757 75.9819 34.9947 76.2283 35.0326C76.4747 35.0705 76.7021 35.1084 76.9106 35.1842C77.119 35.241 77.2896 35.2979 77.4223 35.3548C77.5739 35.4116 77.6686 35.4685 77.7065 35.5064C77.7444 35.5253 77.7634 35.5632 77.7444 35.6011C77.7444 35.639 77.7255 35.6959 77.6686 35.7906L77.3844 36.2644H77.3275ZM80.5114 35.9991C80.4735 36.1507 80.3977 36.2076 80.246 36.2076H79.3553C79.1848 36.2076 79.1279 36.1318 79.1658 35.9991L79.3553 35.0894C79.3932 34.9378 79.469 34.862 79.6396 34.862H80.5303C80.6819 34.862 80.7388 34.9378 80.7009 35.0894L80.5114 35.9802V35.9991ZM79.4122 41.4382C79.3553 41.7225 79.3364 41.912 79.3932 42.0257C79.4311 42.1584 79.488 42.2152 79.5638 42.2152H79.5827C79.7344 42.2152 79.7912 42.291 79.7533 42.4427L79.6585 42.9354C79.6206 43.087 79.5448 43.1628 79.3932 43.1628H79.3174C78.2372 43.1628 77.8013 42.6132 78.0287 41.533L78.8436 37.591C78.8815 37.4394 78.9763 37.3636 79.1089 37.3636H79.9997C80.1513 37.3636 80.2081 37.4394 80.1892 37.591L79.3932 41.4572L79.4122 41.4382ZM86.6138 41.4382C86.5569 41.7035 86.5569 41.912 86.5948 42.0257C86.6327 42.1584 86.7085 42.1963 86.7654 42.1963H86.7844C86.936 42.1963 86.9928 42.2721 86.9739 42.4237L86.8791 42.9164C86.8602 43.0681 86.7654 43.1439 86.6327 43.1439H86.5569C85.4767 43.1439 85.0408 42.6132 85.2682 41.514L85.6283 39.7705C85.6662 39.562 85.6852 39.3535 85.7041 39.164C85.7041 38.9556 85.7041 38.785 85.6473 38.6334C85.5904 38.4818 85.5146 38.3681 85.4009 38.2733C85.2872 38.1785 85.1356 38.1406 84.946 38.1406C84.169 38.1406 83.6573 38.7092 83.411 39.8842L82.7856 42.9164C82.7666 43.0681 82.6719 43.1439 82.5202 43.1439H81.6106C81.4589 43.1439 81.3831 43.0681 81.421 42.9164L82.236 38.9366C82.2928 38.7092 82.2928 38.5386 82.236 38.4249C82.1791 38.3302 82.1223 38.2733 82.0464 38.2733H82.0275C81.8759 38.2733 81.819 38.1975 81.838 38.0459L81.9327 37.5531C81.9517 37.4015 82.0464 37.3257 82.217 37.3257H82.2739C82.5013 37.3257 82.6908 37.3447 82.8424 37.4015C82.994 37.4394 83.1267 37.4963 83.2025 37.5721C83.2973 37.6669 83.3541 37.7427 83.392 37.8564C83.4299 37.9701 83.4489 38.1027 83.4489 38.2544H83.4678C83.7331 37.8943 83.9985 37.6289 84.2448 37.4584C84.5102 37.2878 84.8323 37.1931 85.2303 37.1931C85.5146 37.1931 85.7989 37.231 86.0452 37.3447C86.3106 37.4394 86.519 37.591 86.6706 37.7806C86.8412 37.9701 86.936 38.1975 87.0118 38.4628C87.0686 38.7281 87.0686 39.0503 87.0118 39.3914L86.5948 41.4382H86.6138ZM92.811 38.387C92.7731 38.4249 92.7162 38.4439 92.6783 38.4439C92.6215 38.4439 92.5835 38.4249 92.5267 38.4249C92.4319 38.387 92.2803 38.3302 92.1098 38.2544C91.9392 38.1785 91.7307 38.1406 91.4654 38.1406C91.1811 38.1406 90.9537 38.1975 90.7263 38.3112C90.5178 38.4249 90.3473 38.5955 90.1956 38.766C90.044 38.9556 89.9303 39.183 89.8356 39.4293C89.7408 39.6947 89.665 39.941 89.6081 40.2253C89.5513 40.5096 89.5134 40.7749 89.5134 41.0402C89.4944 41.2866 89.5323 41.514 89.6081 41.7035C89.684 41.8931 89.7977 42.0447 89.9493 42.1584C90.1009 42.2721 90.3283 42.3289 90.5936 42.3289C90.821 42.3289 91.0106 42.291 91.219 42.2342C91.4085 42.1773 91.5981 42.1015 91.7876 42.0447C91.8444 42.0068 91.9202 42.0068 91.9581 42.0068C92.015 42.0068 92.0529 42.0257 92.0719 42.0636L92.2235 42.4237C92.2803 42.5374 92.2614 42.6322 92.1666 42.708C92.034 42.8217 91.8065 42.9543 91.4654 43.0681C91.1432 43.2007 90.7263 43.2576 90.2525 43.2576C89.7408 43.2576 89.3239 43.1628 89.0206 43.0112C88.7174 42.8406 88.5089 42.6132 88.3573 42.3479C88.2247 42.0636 88.1489 41.7414 88.1299 41.3624C88.1299 41.0023 88.1678 40.6044 88.2626 40.2064C88.3384 39.7894 88.471 39.4104 88.6227 39.0503C88.7743 38.6713 88.9827 38.3491 89.267 38.0838C89.5134 37.7995 89.8356 37.591 90.2335 37.4205C90.6126 37.2499 91.0674 37.1741 91.5981 37.1741C91.7876 37.1741 91.9771 37.1931 92.1477 37.231C92.3182 37.2689 92.4698 37.3068 92.6215 37.3636C92.7541 37.4205 92.8868 37.4773 92.9815 37.5342C93.0763 37.591 93.1521 37.6669 93.2089 37.7048C93.2468 37.7427 93.2658 37.7806 93.2658 37.8185C93.2658 37.8564 93.2279 37.9322 93.171 37.989L92.8489 38.3491L92.811 38.387ZM96.8287 39.7894C96.9993 39.7894 97.113 39.7705 97.1888 39.7136C97.2646 39.6757 97.3214 39.581 97.3404 39.3914C97.3783 39.2209 97.3783 39.0693 97.3783 38.9177C97.3594 38.766 97.3214 38.6334 97.2646 38.5197C97.2077 38.406 97.113 38.3112 97.0182 38.2354C96.9045 38.1596 96.7719 38.1217 96.6392 38.1217C96.4307 38.1217 96.2602 38.1596 96.0896 38.2544C95.919 38.3302 95.7864 38.4628 95.6537 38.6144C95.54 38.766 95.4263 38.9366 95.3315 39.1261C95.2368 39.3156 95.161 39.5431 95.1041 39.7515H96.8287V39.7894ZM94.8956 40.7181C94.8577 40.9644 94.8577 41.1729 94.8767 41.3814C94.8956 41.5709 94.9335 41.7414 95.0283 41.8931C95.1041 42.0447 95.2178 42.1584 95.3884 42.2342C95.54 42.3289 95.7485 42.3669 95.9948 42.3669C96.2033 42.3669 96.4307 42.3479 96.6581 42.291C96.8856 42.2342 97.1319 42.1773 97.3783 42.1015C97.511 42.0636 97.5868 42.0447 97.6057 42.0636C97.6247 42.0826 97.6626 42.1015 97.6626 42.1205L97.8142 42.4806C97.871 42.5943 97.8521 42.689 97.7573 42.7648C97.7005 42.8406 97.5868 42.8975 97.4541 42.9543C97.3214 43.0302 97.1509 43.087 96.9614 43.1439C96.7719 43.2007 96.5634 43.2386 96.336 43.2765C96.1275 43.3144 95.8811 43.3334 95.6348 43.3334C95.1231 43.3334 94.7061 43.2386 94.4029 43.087C94.0997 42.9164 93.8723 42.708 93.7206 42.4237C93.569 42.1584 93.4932 41.8362 93.4932 41.4761C93.4743 41.116 93.5311 40.737 93.588 40.358C93.6638 39.9221 93.7964 39.5241 93.967 39.1451C94.1376 38.766 94.346 38.4439 94.6114 38.1785C94.8577 37.8943 95.161 37.6669 95.5021 37.4963C95.8622 37.3257 96.2602 37.2499 96.715 37.2499C97.0561 37.2499 97.3594 37.3068 97.6247 37.4015C97.909 37.4963 98.1364 37.6479 98.3069 37.8564C98.4775 38.0459 98.6102 38.3112 98.667 38.6144C98.7428 38.9177 98.7239 39.2588 98.6481 39.6757C98.6102 39.8842 98.5533 40.0737 98.4775 40.2064C98.4017 40.339 98.3069 40.4527 98.2122 40.5475C98.0985 40.6423 97.9469 40.6991 97.7952 40.737C97.6247 40.7749 97.4352 40.7939 97.2077 40.7939H94.8956V40.7181ZM103.841 42.9354C103.803 43.087 103.727 43.1628 103.575 43.1628H102.609C102.457 43.1628 102.382 43.087 102.419 42.9354L103.689 36.7761L102.154 37.4205C102.002 37.4773 101.946 37.4205 101.984 37.2878L102.116 36.6624C102.135 36.5108 102.23 36.3971 102.382 36.3402L105.243 35.0894C105.395 35.0326 105.452 35.0705 105.433 35.2221L103.841 42.9733V42.9354ZM110.625 37.0604C110.682 36.7572 110.625 36.5108 110.474 36.3213C110.303 36.1318 110.076 36.056 109.792 36.056C109.488 36.037 109.223 36.1507 108.996 36.3402C108.749 36.5487 108.617 36.7761 108.56 37.0604C108.522 37.212 108.522 37.3636 108.541 37.5152C108.56 37.6479 108.617 37.7616 108.692 37.8753C108.768 37.989 108.863 38.0648 108.977 38.1217C109.09 38.1785 109.223 38.2164 109.375 38.2164C109.507 38.2164 109.64 38.1975 109.792 38.1406C109.924 38.0648 110.057 37.989 110.171 37.8943C110.284 37.7995 110.379 37.6858 110.474 37.5342C110.569 37.3826 110.607 37.231 110.644 37.0794L110.625 37.0604ZM109.128 39.3346C108.939 39.3346 108.749 39.3725 108.579 39.4293C108.389 39.5052 108.219 39.5999 108.086 39.7326C107.934 39.8652 107.802 40.0169 107.688 40.2064C107.574 40.3769 107.498 40.5854 107.442 40.8318C107.347 41.2866 107.423 41.6277 107.631 41.8931C107.859 42.1584 108.143 42.2721 108.522 42.2721C108.711 42.2721 108.882 42.2342 109.071 42.1773C109.242 42.1205 109.413 42.0257 109.564 41.8931C109.697 41.7604 109.848 41.6088 109.943 41.4382C110.057 41.2487 110.133 41.0592 110.171 40.8318C110.209 40.6044 110.228 40.3959 110.171 40.2064C110.133 40.0169 110.076 39.8652 109.981 39.7326C109.886 39.5999 109.754 39.5052 109.602 39.4293C109.45 39.3725 109.28 39.3346 109.09 39.3346H109.128ZM110.398 38.766C110.891 38.9556 111.232 39.2209 111.44 39.581C111.649 39.9221 111.706 40.358 111.592 40.8697C111.44 41.6656 111.08 42.2531 110.512 42.689C109.924 43.106 109.204 43.3144 108.332 43.3144C107.423 43.3144 106.778 43.106 106.38 42.689C106.001 42.2721 105.888 41.6656 106.039 40.8697C106.134 40.3769 106.361 39.941 106.721 39.581C107.063 39.2209 107.517 38.9366 108.105 38.7471C107.707 38.5765 107.442 38.3681 107.271 38.1027C107.1 37.8185 107.063 37.4773 107.138 37.0794C107.214 36.7761 107.309 36.5108 107.461 36.2455C107.612 35.9991 107.802 35.7717 108.029 35.6011C108.275 35.4116 108.541 35.2789 108.882 35.1842C109.204 35.0705 109.583 35.0326 110 35.0326C110.417 35.0326 110.777 35.0705 111.061 35.1842C111.346 35.2789 111.573 35.4306 111.725 35.6011C111.895 35.7906 111.99 35.9991 112.028 36.2455C112.066 36.5108 112.066 36.7951 112.009 37.0794C111.933 37.4584 111.763 37.7995 111.478 38.0838C111.213 38.3681 110.834 38.5955 110.379 38.785L110.398 38.766ZM116.33 36.0749C116.046 36.0749 115.818 36.1318 115.61 36.2265C115.42 36.3213 115.25 36.4539 115.117 36.6245C114.984 36.7951 114.871 36.9846 114.795 37.1931C114.7 37.4205 114.643 37.6289 114.605 37.8564C114.548 38.0648 114.511 38.2923 114.511 38.4818C114.511 38.6713 114.53 38.8419 114.605 38.9935C114.662 39.1451 114.776 39.2588 114.927 39.3535C115.079 39.4483 115.269 39.4862 115.534 39.4862C115.78 39.4862 116.008 39.4293 116.159 39.3156C116.33 39.2019 116.482 39.0503 116.614 38.8798C116.747 38.7092 116.842 38.4818 116.917 38.2544C116.993 38.0269 117.05 37.7616 117.126 37.4963C117.164 37.2499 117.164 37.0414 117.145 36.8709C117.107 36.6814 117.05 36.5487 116.974 36.435C116.898 36.3213 116.804 36.2265 116.671 36.1697C116.557 36.1128 116.444 36.0749 116.311 36.0749H116.33ZM113.032 42.0257C113.07 41.9689 113.108 41.9689 113.165 41.9689C113.146 41.9689 113.184 41.9878 113.298 42.0068C113.411 42.0447 113.525 42.0826 113.696 42.1205C113.847 42.1773 114.037 42.2152 114.207 42.2342C114.397 42.2721 114.567 42.291 114.738 42.291C114.965 42.291 115.212 42.2342 115.439 42.1394C115.667 42.0447 115.875 41.8741 116.084 41.6277C116.273 41.4003 116.463 41.0781 116.633 40.6991C116.785 40.3011 116.936 39.8273 117.069 39.2398C116.955 39.5052 116.804 39.7326 116.671 39.9031C116.519 40.0737 116.368 40.2064 116.216 40.3011C116.065 40.3959 115.875 40.4717 115.705 40.5096C115.534 40.5475 115.344 40.5664 115.155 40.5664C114.7 40.5664 114.34 40.4906 114.056 40.358C113.771 40.2064 113.563 40.0169 113.43 39.7705C113.279 39.5241 113.203 39.2398 113.184 38.9177C113.165 38.5765 113.184 38.2354 113.279 37.8564C113.355 37.4584 113.487 37.1173 113.639 36.7572C113.809 36.416 114.018 36.1128 114.264 35.8664C114.53 35.6011 114.833 35.4116 115.212 35.26C115.572 35.1084 115.989 35.0326 116.463 35.0326C117.296 35.0326 117.865 35.3737 118.206 36.056C118.547 36.7382 118.566 37.7806 118.301 39.1451C118.149 39.8652 117.96 40.4906 117.694 41.0023C117.448 41.533 117.164 41.9689 116.842 42.31C116.519 42.6701 116.159 42.9164 115.78 43.087C115.401 43.2576 115.003 43.3334 114.605 43.3334C114.378 43.3334 114.15 43.3144 113.923 43.2576C113.696 43.2007 113.487 43.1439 113.298 43.087C113.108 43.0112 112.957 42.9543 112.843 42.8785C112.729 42.8027 112.672 42.7269 112.691 42.689C112.71 42.6701 112.71 42.6322 112.729 42.6132C112.729 42.5753 112.748 42.5564 112.786 42.5185L113.051 42.0447L113.032 42.0257ZM123.001 37.3636L120.575 40.2822H122.432L123.039 37.3636H123.02H123.001ZM123.854 40.2822H124.555C124.707 40.2822 124.763 40.358 124.725 40.5096L124.612 41.0592C124.593 41.2108 124.498 41.2866 124.346 41.2866H123.645L123.285 42.9923C123.247 43.1439 123.171 43.2197 123.02 43.2197H122.053C121.902 43.2197 121.826 43.1439 121.864 42.9923L122.224 41.2866H118.983C118.832 41.2866 118.775 41.2108 118.794 41.0592L118.813 40.9455C118.832 40.8697 118.869 40.7939 118.888 40.7181C118.907 40.6423 118.964 40.5854 119.021 40.5285L123.532 35.3358C123.645 35.2221 123.778 35.1652 123.93 35.1652H124.688C124.82 35.1652 124.896 35.2221 124.858 35.3737L123.854 40.2632V40.2822ZM16.5118 12.158C16.417 12.5749 16.1706 12.7834 15.7537 12.7834H7.94564L6.52427 19.7197H12.7594C13.1763 19.7197 13.3469 19.9471 13.2521 20.3451L12.9299 21.9181C12.8352 22.335 12.5888 22.5435 12.1719 22.5435H5.93677L4.02266 31.9435C3.9279 32.3604 3.70048 32.5689 3.28355 32.5689H0.554513C0.118626 32.5689 -0.0708901 32.3604 0.023868 31.9435L4.40169 10.585C4.49645 10.1681 4.74282 9.95959 5.15976 9.95959L16.3223 9.97855C16.7392 9.97855 16.9098 10.187 16.8339 10.6039L16.5118 12.1769V12.158ZM34.2694 18.8289C34.2126 19.0374 34.1557 19.189 34.061 19.2459C33.9662 19.3217 33.8714 19.3596 33.7388 19.3785C33.6061 19.3975 33.4735 19.3785 33.3219 19.3406C33.1702 19.3027 33.0376 19.2838 32.886 19.2838C30.8771 19.2838 29.6642 20.2882 29.2473 22.335L27.1436 32.0572C27.0489 32.4931 26.8025 32.6826 26.4045 32.6826H23.8839C23.4481 32.6826 23.2585 32.4741 23.3533 32.0572L25.7791 20.7431C25.9307 20.0798 25.9307 19.587 25.817 19.3027C25.6844 19.0185 25.5138 18.8858 25.3053 18.8858H25.2485C24.8315 18.8858 24.661 18.6773 24.7557 18.2604L25.021 16.8769C25.1158 16.46 25.3622 16.2515 25.7981 16.2515H25.9876C27.2952 16.2515 28.2049 16.4031 28.7166 16.7253C29.2094 17.0285 29.4747 17.4834 29.4747 18.0709H29.5315C30.2138 17.3318 30.915 16.8011 31.6162 16.4789C32.3364 16.1568 33.2271 16.0052 34.3263 16.0052C34.5348 16.0052 34.6674 16.0241 34.7432 16.062C34.819 16.1189 34.819 16.2515 34.7622 16.4789L34.2694 18.8289ZM46.7206 19.208C46.6259 19.3596 46.4932 19.4164 46.3416 19.3785C46.19 19.3406 46.0384 19.3027 45.8868 19.2648C45.3561 19.0564 44.8065 18.8669 44.238 18.7152C43.6884 18.5636 43.063 18.4689 42.3807 18.4689C41.4331 18.4689 40.713 18.6584 40.2392 19.0374C39.7465 19.4164 39.4243 19.9092 39.2916 20.5156C39.2158 20.8757 39.2727 21.1789 39.4053 21.4443C39.5569 21.7096 39.8223 21.9181 40.2392 22.0507L43.7073 23.112C44.996 23.51 45.811 24.0975 46.19 24.8745C46.5501 25.6515 46.6069 26.637 46.3606 27.8689C46.19 28.7217 45.8489 29.4798 45.3561 30.0862C44.8634 30.7116 44.2759 31.2423 43.5747 31.6781C42.8735 32.114 42.1154 32.4362 41.2815 32.6257C40.4477 32.8342 39.5948 32.9289 38.742 32.9289C38.0787 32.9289 37.4344 32.891 36.8279 32.7963C36.2215 32.7205 35.6908 32.6068 35.1981 32.4552C34.7053 32.3225 34.3073 32.1519 34.0041 31.9624C33.6819 31.7729 33.4735 31.5834 33.3598 31.356C33.2081 31.0906 33.246 30.8064 33.4735 30.541L34.3642 29.5366C34.4779 29.4419 34.6106 29.366 34.7622 29.385C34.9138 29.4039 35.0464 29.4229 35.1791 29.4608C35.7477 29.6693 36.3541 29.8588 36.9795 30.0104C37.6049 30.181 38.3061 30.2568 39.0831 30.2568C39.7275 30.2568 40.2771 30.1999 40.713 30.0673C41.1489 29.9346 41.509 29.783 41.7743 29.5745C42.0396 29.366 42.2291 29.1576 42.3618 28.8923C42.4944 28.6459 42.5892 28.3995 42.646 28.1531C42.7408 27.6794 42.6271 27.3003 42.3239 27.035C42.0017 26.7697 41.4331 26.4854 40.5803 26.2011L38.0029 25.3862C36.9037 25.0261 36.1835 24.4386 35.8235 23.6237C35.4634 22.8088 35.3876 21.8802 35.596 20.8189C35.7477 20.0987 36.013 19.4544 36.392 18.8289C36.771 18.2035 37.2448 17.6729 37.8323 17.2181C38.4198 16.7443 39.1021 16.4031 39.8981 16.1568C40.694 15.9104 41.5658 15.7777 42.5323 15.7777C43.8779 15.7777 45.015 15.9483 45.9436 16.2705C46.8723 16.6116 47.4787 16.9527 47.744 17.3128C47.7819 17.3697 47.8009 17.4644 47.8388 17.5971C47.8577 17.7108 47.763 17.9003 47.5735 18.1277L46.6827 19.1322L46.7206 19.208ZM66.4493 12.6128L64.99 19.7576H66.8852C67.359 19.7576 67.7948 19.6818 68.2497 19.5112C68.7045 19.3406 69.1215 19.0943 69.5005 18.7721C69.8795 18.4499 70.2017 18.0519 70.486 17.5971C70.7702 17.1423 70.9787 16.6116 71.0924 16.0241C71.3009 15.0007 71.1493 14.1669 70.6376 13.5604C70.1259 12.935 69.1404 12.6318 67.738 12.6128H66.4493ZM64.4404 22.3919L62.8864 29.9725H65.5965C66.4682 29.9725 67.1884 29.8588 67.7948 29.6503C68.4013 29.4419 68.894 29.1576 69.292 28.7975C69.6711 28.4564 69.9743 28.0584 70.2017 27.6035C70.4102 27.1487 70.5807 26.6939 70.6565 26.2201C70.7513 25.7652 70.7702 25.2914 70.7323 24.8556C70.6944 24.4197 70.5428 24.0027 70.2775 23.6237C70.0122 23.2636 69.6331 22.9794 69.1404 22.7519C68.6287 22.5245 67.9654 22.4108 67.1505 22.4108H64.4404V22.3919ZM68.3255 9.97855C70.7892 9.97855 72.6465 10.4902 73.8594 11.5136C75.0912 12.537 75.4892 14.0152 75.0912 15.9483C74.8448 17.0854 74.39 18.033 73.7267 18.81C73.0634 19.587 72.1916 20.1935 71.1303 20.6673L71.1114 20.7241C72.6086 20.9515 73.6319 21.5769 74.2194 22.5624C74.8069 23.5669 74.9585 24.7608 74.6553 26.1632C74.4658 27.0729 74.1247 27.9257 73.594 28.7027C73.0823 29.4798 72.438 30.162 71.661 30.7495C70.9029 31.337 70.0501 31.7919 69.0835 32.114C68.136 32.4362 67.1505 32.6068 66.1271 32.6068H59.0013C58.5465 32.6068 58.3759 32.3983 58.4706 31.9814L62.8485 10.6229C62.9432 10.206 63.1896 9.9975 63.6065 9.9975L68.2876 10.0164L68.3255 9.97855ZM85.5904 18.5068C85.0219 18.5068 84.4912 18.6015 83.9985 18.7531C83.5057 18.9237 83.0698 19.2269 82.6908 19.6628C82.3118 20.0987 81.9517 20.7052 81.6295 21.4443C81.3073 22.2023 81.0231 23.1689 80.7767 24.3628C80.5303 25.5757 80.3977 26.5612 80.3977 27.3382C80.3977 28.1152 80.4924 28.7217 80.7198 29.1765C80.9283 29.6314 81.2505 29.9346 81.6485 30.1052C82.0654 30.2757 82.5392 30.3515 83.1267 30.3515C84.5291 30.3515 85.7041 29.8967 86.6706 28.9681C87.5993 28.0394 88.3005 26.5044 88.7364 24.3628C89.1533 22.2781 89.0965 20.762 88.5469 19.8523C87.9973 18.9427 86.9928 18.4689 85.5904 18.4689V18.5068ZM91.7497 28.1342C91.5981 28.8164 91.5791 29.2902 91.7307 29.5745C91.8634 29.8588 92.034 29.9914 92.2424 29.9914H92.2993C92.7162 29.9914 92.8868 30.2189 92.792 30.6169L92.5077 32.0003C92.4319 32.4173 92.1666 32.6257 91.7876 32.6257H91.5981C90.2904 32.6257 89.3997 32.3983 88.9069 31.9245C88.4142 31.4697 88.1868 30.8443 88.2247 30.0483H88.1678C87.296 31.0906 86.3485 31.8487 85.3251 32.3225C84.3017 32.7963 83.1646 33.0237 81.9706 33.0237C81.061 33.0237 80.246 32.8721 79.488 32.5878C78.7299 32.3035 78.1235 31.8298 77.6497 31.1475C77.1759 30.4842 76.8727 29.5935 76.721 28.4943C76.5884 27.3951 76.6831 26.0116 77.0243 24.3628C77.3654 22.7519 77.8202 21.3874 78.4077 20.3072C78.9952 19.2269 79.6585 18.3362 80.3977 17.6919C81.1557 17.0285 81.9517 16.5548 82.8045 16.2705C83.6763 15.9862 84.5481 15.8535 85.4577 15.8535C86.538 15.8535 87.4477 16.0431 88.1868 16.4221C88.9448 16.8011 89.5134 17.3886 89.9493 18.2035H90.0061L90.5178 16.8959C90.5936 16.6685 90.6884 16.4979 90.7831 16.4221C90.8969 16.3273 91.0485 16.2705 91.2948 16.2705H93.5122C93.9291 16.2705 94.0997 16.4789 94.0049 16.8959L91.7497 28.1152V28.1342ZM110.076 27.831C109.924 28.608 109.905 29.1765 110.019 29.4987C110.133 29.8398 110.303 29.9914 110.512 29.9914H110.569C110.986 29.9914 111.156 30.1999 111.061 30.6358L110.796 32.0193C110.701 32.4362 110.455 32.6447 110.057 32.6447H109.867C106.797 32.6447 105.603 31.1096 106.229 28.0584L107.233 23.1499C107.347 22.5435 107.423 21.9749 107.442 21.4064C107.461 20.8568 107.404 20.364 107.271 19.9471C107.138 19.5302 106.911 19.189 106.589 18.9427C106.286 18.6963 105.85 18.5636 105.281 18.5636C103.064 18.5636 101.623 20.1935 100.979 23.4531L99.2166 32.0003C99.1218 32.4173 98.8755 32.6257 98.4775 32.6257H95.9569C95.521 32.6257 95.3315 32.4173 95.4263 32.0003L97.7194 20.781C97.871 20.1177 97.871 19.6439 97.7384 19.3406C97.6057 19.0564 97.4352 18.9237 97.2267 18.9237H97.1698C96.7529 18.9237 96.5823 18.7152 96.6771 18.2983L96.9614 16.9148C97.0561 16.4979 97.3025 16.2894 97.7194 16.2894H97.909C98.5723 16.2894 99.1029 16.3463 99.5388 16.46C99.9747 16.5737 100.316 16.7443 100.581 16.9717C100.846 17.1802 101.017 17.4644 101.112 17.7866C101.207 18.1088 101.244 18.4689 101.244 18.8669H101.32C102.059 17.8624 102.798 17.1233 103.519 16.6495C104.258 16.1568 105.186 15.9294 106.267 15.9294C107.1 15.9294 107.877 16.062 108.579 16.3463C109.28 16.6116 109.867 17.0096 110.322 17.5402C110.777 18.0519 111.099 18.7152 111.289 19.4733C111.459 20.2314 111.459 21.1221 111.27 22.0886L110.076 27.831ZM58.4138 16.2515H56.367L57.3715 11.2483L53.1263 13.4277L52.5767 16.2515H50.9279C50.511 16.2515 50.2456 16.46 50.1509 16.8769L49.8856 18.1088C49.7908 18.5447 49.9614 18.7531 50.3783 18.7531H52.0271L50.2077 27.7173C49.8666 29.385 49.9993 30.5979 50.5678 31.4128C51.1553 32.2277 52.1598 32.6257 53.5811 32.6257H55.0594C55.4573 32.6257 55.7037 32.4173 55.7985 32.0003L56.0827 30.6169C56.1775 30.1999 56.0069 29.9914 55.571 29.9914H55.0404C54.6803 29.9914 54.3771 29.8209 54.1118 29.4798C53.8654 29.1386 53.8085 28.589 53.9602 27.812L55.7985 18.7721H57.8452C58.2622 18.7721 58.5275 18.5636 58.6223 18.1467L58.8876 16.9148C58.9823 16.4979 58.8118 16.2894 58.3948 16.2894L58.4138 16.2515ZM128.933 16.3084H126.317C125.9 16.3084 125.521 16.4789 125.18 16.8201L118.528 23.4721L121.276 10.0354L117.069 12.1769L112.994 32.0193C112.9 32.4362 113.07 32.6447 113.525 32.6447H116.027C116.425 32.6447 116.671 32.4362 116.766 32.0193L118.092 25.5189L121.94 32.1519C122.11 32.4931 122.432 32.6636 122.868 32.6636H125.976C126.412 32.6636 126.545 32.4931 126.317 32.1519L121.276 24.1923L129.065 16.8201C129.463 16.4789 129.425 16.3273 128.933 16.3273V16.3084ZM22.5763 13.2572C22.4815 13.6741 22.2352 13.8826 21.8561 13.8826H19.3545C18.9186 13.8826 18.7481 13.6741 18.8239 13.2572L19.3545 10.7556C19.4493 10.3386 19.6956 10.1491 20.1126 10.1491H22.6142C23.0311 10.1491 23.2017 10.3576 23.1069 10.7745L22.5763 13.2761V13.2572ZM19.3924 28.2669C19.2408 29.0439 19.2219 29.5935 19.3356 29.9156C19.4493 30.2568 19.6009 30.4084 19.8283 30.4084H19.8852C20.3021 30.4084 20.4727 30.6169 20.3779 31.0338L20.1126 32.3983C20.0178 32.8152 19.7714 33.0237 19.3735 33.0237H19.1839C16.1517 33.0237 14.9577 31.4886 15.5831 28.4564L18.0658 16.9717C18.1416 16.5548 18.4069 16.3463 18.8239 16.3463H21.3255C21.7424 16.3463 21.913 16.5548 21.8182 16.9717L19.3924 28.2289V28.2669Z" fill="#002855"/>
</svg>
